<?xml version="1.0" encoding="utf-8"?>
<!-- Generator: Adobe Illustrator 17.0.0, SVG Export Plug-In . SVG Version: 6.00 Build 0)  -->
<!DOCTYPE svg PUBLIC "-//W3C//DTD SVG 1.1//EN" "http://www.w3.org/Graphics/SVG/1.1/DTD/svg11.dtd">
<svg version="1.1" id="Layer_1" xmlns="http://www.w3.org/2000/svg" xmlns:xlink="http://www.w3.org/1999/xlink" x="0px" y="0px"
	 width="264.88px" height="90.31px" viewBox="0 0 264.88 90.31" enable-background="new 0 0 264.88 90.31" xml:space="preserve">
<g>
	<g>
		<path fill="#4D5C89" d="M264.88,45.15c0,2.2-0.16,4.35-0.46,6.46c-0.42,2.95-1.12,5.79-2.09,8.52c-0.52,1.5-1.12,2.95-1.79,4.37
			c-1.54,3.25-3.46,6.27-5.69,9.04c-0.9,1.11-1.86,2.2-2.87,3.21c-0.21,0.23-0.43,0.44-0.65,0.65c-1.93,1.91-4.04,3.62-6.29,5.16
			l-2.74-5.16l-3.22-6.04l-0.15-0.3c0.05-0.04,0.1-0.07,0.15-0.12c2.44-1.82,4.61-4,6.44-6.44c0.92-1.2,1.75-2.5,2.49-3.83
			c1.54-2.8,2.67-5.85,3.32-9.06c0.43-2.1,0.65-4.24,0.65-6.46c0-1.79-0.15-3.57-0.43-5.29c0,0,0-0.01-0.01-0.01
			c-0.06-0.39-0.13-0.77-0.21-1.15c-0.96-4.76-2.98-9.14-5.81-12.89c-1.07-1.45-2.28-2.8-3.58-4.02v-0.02
			c-0.91-0.85-1.86-1.66-2.86-2.4c-3.75-2.83-8.13-4.86-12.9-5.81c-1.14-0.25-2.31-0.42-3.49-0.51c-0.98-0.1-1.96-0.15-2.96-0.15
			h-46.49V0h46.49c2.19,0,4.34,0.17,6.45,0.46c1.68,0.24,3.33,0.58,4.95,0.99c2.76,0.73,5.42,1.69,7.95,2.9
			c4.55,2.16,8.69,5.07,12.24,8.55c0.22,0.22,0.44,0.43,0.66,0.66c0.15,0.14,0.29,0.3,0.44,0.45c3.29,3.45,6.04,7.43,8.11,11.8
			c1.46,3.05,2.57,6.3,3.3,9.68c0.24,1.06,0.44,2.13,0.59,3.21C264.72,40.81,264.88,42.96,264.88,45.15z"/>
	</g>
	<g>
		<rect x="173.24" y="0" fill="#4D5C89" width="12.9" height="90.31"/>
	</g>
	<g>
		<polygon fill="#4D5C89" points="205.32,90.31 173.24,90.31 173.24,77.4 198.46,77.4 200.38,81 203.78,87.4 		"/>
	</g>
	<g>
		<path fill="#4D5C89" d="M239.08,45.15c0,2.27-0.39,4.43-1.11,6.46c-1.07,3.04-2.88,5.74-5.22,7.85c-1.89,1.73-4.11,3.08-6.57,3.93
			c-1.69,0.61-3.5,0.98-5.37,1.07l0.02,0.04l5.35,10.06l1.04,1.96l0.47,0.88l5.73,10.79c-2.34,0.75-4.76,1.31-7.24,1.66
			c-2.04,0.29-4.13,0.45-6.25,0.46l-6.65-12.51l-0.21-0.4l-0.41-0.78l-6.44-12.12h-32.98V51.61h46.49c3.02,0,5.55-2.09,6.25-4.88
			c0.13-0.5,0.2-1.04,0.2-1.58c0-2.78-1.77-5.15-4.25-6.04V39.1c-0.69-0.25-1.43-0.4-2.2-0.4h-46.49V25.81h46.49
			c0.33,0,0.65,0,0.98,0.02c0.55,0.03,1.1,0.07,1.64,0.16c0.23,0.02,0.47,0.06,0.7,0.11c0.13,0.02,0.26,0.03,0.39,0.07
			c0.1,0.02,0.2,0.02,0.3,0.06c0.03,0,0.05,0.01,0.07,0.01c0.38,0.07,0.76,0.18,1.13,0.28c0.03,0,0.06,0.02,0.09,0.03
			c0.38,0.1,0.75,0.22,1.11,0.35c0.02-0.01,0.03,0,0.04,0.02c2,0.7,3.85,1.72,5.49,3.02c2.86,2.24,5.07,5.26,6.3,8.76
			c0.57,1.61,0.94,3.3,1.05,5.06C239.06,44.23,239.08,44.69,239.08,45.15z"/>
	</g>
	<g>
		<path d="M8.284,38.246l-3.04-5.282H3.591v5.282H1.425V25.041h4.56c1.013,0,1.872,0.178,2.575,0.532s1.229,0.83,1.577,1.425
			c0.348,0.596,0.522,1.261,0.522,1.995c0,0.861-0.25,1.644-0.75,2.347c-0.5,0.703-1.27,1.181-2.309,1.435l3.268,5.472H8.284z
			 M3.591,31.236h2.394c0.811,0,1.422-0.203,1.833-0.608c0.412-0.405,0.618-0.95,0.618-1.634s-0.203-1.219-0.608-1.605
			c-0.406-0.387-1.02-0.58-1.843-0.58H3.591V31.236z"/>
		<path d="M22.952,33.82h-7.999c0.063,0.836,0.374,1.507,0.931,2.014c0.557,0.507,1.241,0.76,2.052,0.76
			c1.165,0,1.988-0.487,2.47-1.463h2.337c-0.316,0.963-0.89,1.752-1.719,2.365c-0.83,0.615-1.859,0.922-3.087,0.922
			c-1.001,0-1.897-0.225-2.689-0.675c-0.792-0.449-1.412-1.083-1.862-1.899c-0.45-0.817-0.674-1.764-0.674-2.841
			c0-1.076,0.218-2.023,0.655-2.841c0.437-0.816,1.051-1.446,1.843-1.89c0.792-0.443,1.7-0.665,2.727-0.665
			c0.988,0,1.868,0.215,2.641,0.646s1.375,1.035,1.805,1.814s0.646,1.676,0.646,2.688C23.028,33.148,23.003,33.503,22.952,33.82z
			 M20.767,32.072c-0.013-0.798-0.297-1.437-0.855-1.919c-0.557-0.481-1.248-0.723-2.071-0.723c-0.748,0-1.387,0.238-1.919,0.713
			c-0.532,0.475-0.849,1.118-0.95,1.929H20.767z"/>
		<path d="M25.089,30.171c0.437-0.811,1.032-1.44,1.786-1.891c0.753-0.449,1.586-0.674,2.499-0.674c0.823,0,1.542,0.161,2.156,0.484
			c0.614,0.323,1.105,0.725,1.473,1.206v-1.52h2.185v10.469h-2.185v-1.558c-0.368,0.493-0.868,0.905-1.501,1.234
			c-0.633,0.329-1.355,0.494-2.166,0.494c-0.899,0-1.723-0.23-2.47-0.693c-0.747-0.462-1.339-1.108-1.776-1.938
			c-0.437-0.829-0.655-1.77-0.655-2.821C24.434,31.913,24.652,30.982,25.089,30.171z M32.556,31.121
			c-0.298-0.532-0.687-0.938-1.168-1.216c-0.482-0.278-1.001-0.418-1.558-0.418c-0.558,0-1.077,0.136-1.558,0.408
			s-0.871,0.672-1.168,1.197c-0.298,0.525-0.447,1.149-0.447,1.871c0,0.723,0.149,1.355,0.447,1.9
			c0.297,0.545,0.69,0.959,1.178,1.244s1.004,0.428,1.549,0.428c0.557,0,1.076-0.14,1.558-0.418
			c0.481-0.278,0.871-0.688,1.168-1.226c0.297-0.538,0.446-1.169,0.446-1.891S32.854,31.654,32.556,31.121z"/>
		<path d="M40.203,24.187v14.06h-2.166v-14.06H40.203z"/>
		<path d="M50.159,26.789v3.876h4.56v1.767h-4.56v4.048h5.13v1.767h-7.296V25.023h7.296v1.767H50.159z"/>
		<path d="M59.535,37.971c-0.653-0.298-1.169-0.703-1.549-1.216c-0.38-0.514-0.583-1.086-0.608-1.72h2.242
			c0.038,0.443,0.25,0.814,0.636,1.111c0.386,0.298,0.871,0.446,1.454,0.446c0.608,0,1.08-0.116,1.416-0.352
			c0.335-0.233,0.503-0.534,0.503-0.902c0-0.393-0.187-0.684-0.561-0.874c-0.374-0.189-0.966-0.398-1.776-0.627
			c-0.786-0.215-1.425-0.424-1.919-0.627c-0.494-0.202-0.921-0.513-1.283-0.931c-0.361-0.418-0.542-0.969-0.542-1.653
			c0-0.557,0.165-1.066,0.494-1.529c0.329-0.462,0.801-0.826,1.416-1.093c0.614-0.266,1.32-0.398,2.119-0.398
			c1.19,0,2.15,0.301,2.878,0.902c0.728,0.602,1.118,1.422,1.168,2.46h-2.166c-0.038-0.468-0.228-0.842-0.57-1.121
			c-0.342-0.278-0.805-0.418-1.387-0.418c-0.57,0-1.007,0.108-1.311,0.323c-0.304,0.216-0.456,0.501-0.456,0.855
			c0,0.278,0.101,0.513,0.304,0.703c0.202,0.189,0.449,0.339,0.741,0.446s0.722,0.244,1.292,0.408
			c0.76,0.203,1.384,0.408,1.872,0.617c0.487,0.209,0.909,0.517,1.264,0.922c0.354,0.405,0.538,0.943,0.551,1.615
			c0,0.596-0.165,1.127-0.494,1.596c-0.33,0.469-0.795,0.836-1.397,1.103c-0.602,0.266-1.308,0.398-2.118,0.398
			C60.925,38.417,60.187,38.268,59.535,37.971z"/>
		<path d="M70.622,29.544v5.795c0,0.393,0.092,0.675,0.275,0.846s0.497,0.257,0.94,0.257h1.33v1.805h-1.71
			c-0.976,0-1.723-0.228-2.242-0.684s-0.779-1.197-0.779-2.224v-5.795h-1.235v-1.767h1.235v-2.604h2.185v2.604h2.546v1.767H70.622z"
			/>
		<path d="M75.096,30.171c0.437-0.811,1.032-1.44,1.786-1.891c0.753-0.449,1.586-0.674,2.499-0.674c0.823,0,1.542,0.161,2.156,0.484
			s1.105,0.725,1.473,1.206v-1.52h2.185v10.469h-2.185v-1.558c-0.368,0.493-0.868,0.905-1.501,1.234s-1.355,0.494-2.166,0.494
			c-0.899,0-1.723-0.23-2.47-0.693c-0.747-0.462-1.339-1.108-1.776-1.938c-0.437-0.829-0.655-1.77-0.655-2.821
			C74.441,31.913,74.659,30.982,75.096,30.171z M82.563,31.121c-0.298-0.532-0.688-0.938-1.168-1.216
			c-0.482-0.278-1.001-0.418-1.558-0.418c-0.558,0-1.077,0.136-1.558,0.408s-0.871,0.672-1.168,1.197
			c-0.298,0.525-0.447,1.149-0.447,1.871c0,0.723,0.149,1.355,0.447,1.9c0.297,0.545,0.69,0.959,1.178,1.244
			s1.004,0.428,1.549,0.428c0.557,0,1.076-0.14,1.558-0.418c0.481-0.278,0.871-0.688,1.168-1.226
			c0.297-0.538,0.446-1.169,0.446-1.891S82.86,31.654,82.563,31.121z"/>
		<path d="M97.563,33.82h-7.999c0.063,0.836,0.374,1.507,0.931,2.014c0.557,0.507,1.241,0.76,2.052,0.76
			c1.165,0,1.988-0.487,2.47-1.463h2.337c-0.316,0.963-0.89,1.752-1.719,2.365c-0.83,0.615-1.859,0.922-3.087,0.922
			c-1.001,0-1.897-0.225-2.689-0.675c-0.792-0.449-1.412-1.083-1.862-1.899c-0.45-0.817-0.674-1.764-0.674-2.841
			c0-1.076,0.218-2.023,0.655-2.841c0.437-0.816,1.051-1.446,1.843-1.89c0.792-0.443,1.7-0.665,2.727-0.665
			c0.988,0,1.868,0.215,2.641,0.646s1.375,1.035,1.805,1.814s0.646,1.676,0.646,2.688C97.639,33.148,97.614,33.503,97.563,33.82z
			 M95.378,32.072c-0.013-0.798-0.297-1.437-0.855-1.919c-0.557-0.481-1.248-0.723-2.071-0.723c-0.748,0-1.387,0.238-1.919,0.713
			c-0.532,0.475-0.849,1.118-0.95,1.929H95.378z"/>
		<path d="M112.715,25.849c1.058,0.538,1.875,1.311,2.451,2.318c0.577,1.007,0.865,2.182,0.865,3.524
			c0,1.343-0.288,2.508-0.865,3.496c-0.576,0.987-1.393,1.744-2.451,2.271c-1.058,0.525-2.29,0.788-3.696,0.788h-4.313V25.041h4.313
			C110.426,25.041,111.658,25.311,112.715,25.849z M112.573,35.225c0.823-0.836,1.235-2.014,1.235-3.533
			c0-1.533-0.412-2.729-1.235-3.592c-0.824-0.86-2.008-1.292-3.553-1.292h-2.147v9.672h2.147
			C110.565,36.48,111.749,36.062,112.573,35.225z"/>
		<path d="M127.697,33.82h-7.999c0.063,0.836,0.374,1.507,0.931,2.014c0.557,0.507,1.241,0.76,2.052,0.76
			c1.165,0,1.988-0.487,2.47-1.463h2.337c-0.316,0.963-0.89,1.752-1.719,2.365c-0.83,0.615-1.859,0.922-3.087,0.922
			c-1.001,0-1.897-0.225-2.689-0.675c-0.792-0.449-1.412-1.083-1.862-1.899c-0.45-0.817-0.674-1.764-0.674-2.841
			c0-1.076,0.218-2.023,0.655-2.841c0.437-0.816,1.051-1.446,1.843-1.89c0.792-0.443,1.7-0.665,2.727-0.665
			c0.988,0,1.868,0.215,2.641,0.646s1.375,1.035,1.805,1.814s0.646,1.676,0.646,2.688C127.773,33.148,127.748,33.503,127.697,33.82z
			 M125.512,32.072c-0.013-0.798-0.297-1.437-0.855-1.919c-0.557-0.481-1.248-0.723-2.071-0.723c-0.748,0-1.387,0.238-1.919,0.713
			c-0.532,0.475-0.849,1.118-0.95,1.929H125.512z"/>
		<path d="M129.834,30.171c0.437-0.811,1.032-1.44,1.786-1.891c0.753-0.449,1.586-0.674,2.499-0.674
			c0.823,0,1.542,0.161,2.156,0.484s1.105,0.725,1.473,1.206v-1.52h2.185v10.469h-2.185v-1.558
			c-0.368,0.493-0.868,0.905-1.501,1.234s-1.355,0.494-2.166,0.494c-0.899,0-1.723-0.23-2.47-0.693
			c-0.747-0.462-1.339-1.108-1.776-1.938c-0.437-0.829-0.655-1.77-0.655-2.821C129.179,31.913,129.397,30.982,129.834,30.171z
			 M137.301,31.121c-0.298-0.532-0.688-0.938-1.168-1.216c-0.482-0.278-1.001-0.418-1.558-0.418c-0.558,0-1.077,0.136-1.558,0.408
			s-0.871,0.672-1.168,1.197c-0.298,0.525-0.447,1.149-0.447,1.871c0,0.723,0.149,1.355,0.447,1.9
			c0.297,0.545,0.69,0.959,1.178,1.244s1.004,0.428,1.549,0.428c0.557,0,1.076-0.14,1.558-0.418
			c0.481-0.278,0.871-0.688,1.168-1.226c0.297-0.538,0.446-1.169,0.446-1.891S137.599,31.654,137.301,31.121z"/>
		<path d="M144.948,24.187v14.06h-2.166v-14.06H144.948z"/>
		<path d="M149.385,37.971c-0.653-0.298-1.169-0.703-1.549-1.216c-0.38-0.514-0.583-1.086-0.608-1.72h2.242
			c0.038,0.443,0.25,0.814,0.636,1.111c0.386,0.298,0.871,0.446,1.454,0.446c0.608,0,1.08-0.116,1.416-0.352
			c0.335-0.233,0.503-0.534,0.503-0.902c0-0.393-0.187-0.684-0.561-0.874c-0.374-0.189-0.966-0.398-1.776-0.627
			c-0.786-0.215-1.425-0.424-1.919-0.627c-0.494-0.202-0.921-0.513-1.283-0.931c-0.361-0.418-0.542-0.969-0.542-1.653
			c0-0.557,0.165-1.066,0.494-1.529c0.329-0.462,0.801-0.826,1.416-1.093c0.614-0.266,1.32-0.398,2.119-0.398
			c1.19,0,2.15,0.301,2.878,0.902c0.728,0.602,1.118,1.422,1.168,2.46h-2.166c-0.038-0.468-0.228-0.842-0.57-1.121
			c-0.342-0.278-0.805-0.418-1.387-0.418c-0.57,0-1.007,0.108-1.311,0.323c-0.304,0.216-0.456,0.501-0.456,0.855
			c0,0.278,0.101,0.513,0.304,0.703c0.202,0.189,0.449,0.339,0.741,0.446s0.722,0.244,1.292,0.408
			c0.76,0.203,1.384,0.408,1.872,0.617c0.487,0.209,0.909,0.517,1.264,0.922c0.354,0.405,0.538,0.943,0.551,1.615
			c0,0.596-0.165,1.127-0.494,1.596c-0.33,0.469-0.795,0.836-1.397,1.103c-0.602,0.266-1.308,0.398-2.118,0.398
			C150.775,38.417,150.037,38.268,149.385,37.971z"/>
	</g>
	<g>
		<path d="M9.291,53.721v6.84c0,0.152,0.044,0.266,0.133,0.342c0.076,0.089,0.177,0.133,0.304,0.133h0.532v1.938H9.063
			c-0.583,0-1.108-0.234-1.577-0.703c-0.722,0.596-1.526,0.894-2.413,0.894c-1.001,0-1.862-0.317-2.584-0.95
			c-0.962-0.899-1.444-2.103-1.444-3.61c0-1.38,0.443-2.527,1.33-3.438c0.811-0.823,1.805-1.235,2.983-1.235
			c0.659,0,1.317,0.14,1.976,0.418l0.817-0.627H9.291z M6.973,56.172c-0.444-0.165-0.868-0.247-1.273-0.247
			c-0.684,0-1.248,0.25-1.691,0.75c-0.443,0.501-0.665,1.149-0.665,1.948c0,0.798,0.199,1.438,0.598,1.919s0.934,0.722,1.605,0.722
			c0.456,0,0.931-0.102,1.425-0.304V56.172z M5.168,50.054c0.342,0,0.633,0.12,0.874,0.361c0.24,0.24,0.361,0.531,0.361,0.874
			c0,0.329-0.121,0.614-0.361,0.854c-0.241,0.241-0.532,0.361-0.874,0.361s-0.633-0.12-0.874-0.361
			c-0.241-0.24-0.361-0.525-0.361-0.854c0-0.343,0.12-0.634,0.361-0.874C4.535,50.174,4.826,50.054,5.168,50.054z M8.056,50.054
			c0.342,0,0.633,0.12,0.874,0.361c0.24,0.24,0.361,0.531,0.361,0.874c0,0.329-0.121,0.614-0.361,0.854
			c-0.241,0.241-0.532,0.361-0.874,0.361c-0.33,0-0.615-0.12-0.855-0.361c-0.241-0.24-0.361-0.525-0.361-0.854
			c0-0.343,0.121-0.634,0.361-0.874C7.442,50.174,7.727,50.054,8.056,50.054z"/>
		<path d="M15.846,54.234v6.65c0,0.494-0.165,0.95-0.494,1.368c-0.418,0.481-0.938,0.722-1.558,0.722h-3.667v-1.938h2.926
			c0.139,0,0.259-0.05,0.361-0.151c0.088-0.089,0.133-0.196,0.133-0.323v-6.327H15.846z M11.685,64.361
			c0.342,0,0.633,0.12,0.874,0.361c0.24,0.24,0.361,0.532,0.361,0.874s-0.121,0.633-0.361,0.874
			c-0.241,0.24-0.532,0.361-0.874,0.361c-0.33,0-0.615-0.121-0.855-0.361c-0.241-0.241-0.361-0.532-0.361-0.874
			s0.12-0.634,0.361-0.874C11.07,64.481,11.356,64.361,11.685,64.361z M14.592,64.361c0.342,0,0.63,0.12,0.864,0.361
			c0.234,0.24,0.352,0.532,0.352,0.874s-0.117,0.633-0.352,0.874c-0.234,0.24-0.522,0.361-0.864,0.361
			c-0.342,0-0.634-0.121-0.874-0.361c-0.241-0.241-0.361-0.532-0.361-0.874s0.121-0.634,0.361-0.874
			C13.959,64.481,14.25,64.361,14.592,64.361z"/>
		<path d="M23.807,54.234v8.284c0,1.57-0.481,2.786-1.444,3.648c-0.621,0.569-1.419,0.969-2.394,1.196
			c-0.456,0.089-0.931,0.134-1.425,0.134c-0.165,0-0.387-0.014-0.665-0.038l-0.931-1.159v-0.817
			c0.405,0.063,0.798,0.095,1.178,0.095c2.242,0,3.363-1.089,3.363-3.268v-8.075H23.807z"/>
		<path d="M28.747,49.37v11.19c0,0.127,0.038,0.229,0.114,0.304c0.076,0.114,0.196,0.171,0.361,0.171h0.494v1.938h-1.235
			c-0.52,0-0.975-0.184-1.368-0.551c-0.456-0.418-0.684-0.932-0.684-1.539V49.37H28.747z"/>
		<path d="M33.364,61.035c-0.57-0.76-0.855-1.678-0.855-2.755c0-0.975,0.247-1.817,0.741-2.526c0.798-1.165,1.951-1.748,3.458-1.748
			c1.14,0,2.096,0.354,2.869,1.063c0.899,0.824,1.349,1.895,1.349,3.211c0,1.039-0.285,1.957-0.855,2.755h1.311v1.938h-2.85
			c-0.824,0-1.419-0.082-1.786-0.247h-0.095c-0.355,0.165-0.95,0.247-1.786,0.247h-5.282v-1.938H33.364z M35.302,50.054
			c0.342,0,0.633,0.12,0.874,0.361c0.24,0.24,0.361,0.531,0.361,0.874c0,0.329-0.121,0.614-0.361,0.854
			c-0.241,0.241-0.532,0.361-0.874,0.361c-0.33,0-0.615-0.12-0.855-0.361c-0.241-0.24-0.361-0.525-0.361-0.854
			c0-0.343,0.121-0.634,0.361-0.874C34.687,50.174,34.972,50.054,35.302,50.054z M36.708,61.017c0.57-0.063,1.029-0.326,1.377-0.788
			c0.349-0.463,0.522-1.055,0.522-1.777c0-0.76-0.171-1.367-0.513-1.823c-0.342-0.456-0.805-0.685-1.387-0.685
			c-0.57,0-1.029,0.229-1.377,0.685c-0.349,0.456-0.522,1.063-0.522,1.823c0,0.723,0.174,1.314,0.522,1.777
			C35.678,60.691,36.138,60.953,36.708,61.017z M38.19,50.054c0.342,0,0.633,0.12,0.874,0.361c0.241,0.24,0.361,0.531,0.361,0.874
			c0,0.329-0.121,0.614-0.361,0.854c-0.241,0.241-0.532,0.361-0.874,0.361c-0.342,0-0.63-0.117-0.864-0.352
			s-0.352-0.522-0.352-0.864c0-0.343,0.117-0.634,0.352-0.874C37.56,50.174,37.848,50.054,38.19,50.054z"/>
		<path d="M44.764,61.035v1.938h-3.515v-1.938H44.764z"/>
		<path d="M48.146,61.035v1.938H44.63v-1.938H48.146z"/>
		<path d="M51.527,61.035v1.938h-3.515v-1.938H51.527z"/>
		<path d="M54.035,57.577c0.431-1.241,1.216-2.185,2.356-2.83c0.849-0.481,1.767-0.723,2.755-0.723c0.988,0,1.894,0.267,2.717,0.798
			c1.026,0.621,1.76,1.539,2.204,2.755l-0.228,0.532c-0.507,0.229-1.039,0.621-1.596,1.179c-0.532,0.582-0.88,1.165-1.045,1.747
			h3.059v1.938h-4.18c-0.355,0-0.678-0.164-0.969-0.494h-0.095c-0.292,0.33-0.627,0.494-1.007,0.494h-6.612v-1.938h5.51
			c-0.152-0.519-0.475-1.069-0.969-1.652c-0.544-0.608-1.108-1.032-1.691-1.273L54.035,57.577z M61.635,57.426
			c-0.304-0.532-0.716-0.925-1.235-1.178c-0.393-0.19-0.83-0.285-1.311-0.285c-0.507,0-0.988,0.107-1.444,0.322
			c-0.507,0.254-0.899,0.634-1.178,1.141c0.43,0.189,0.886,0.57,1.368,1.14c0.532,0.596,0.925,1.242,1.178,1.938h0.076
			c0.24-0.71,0.652-1.388,1.235-2.033C60.793,57.951,61.23,57.604,61.635,57.426z"/>
		<path d="M69.843,49.37v11.514c0,0.532-0.171,0.988-0.513,1.368c-0.393,0.481-0.906,0.722-1.539,0.722h-3.667v-1.938h2.926
			c0.139,0,0.259-0.05,0.361-0.151c0.088-0.089,0.133-0.196,0.133-0.323V49.37H69.843z"/>
		<path d="M74.783,49.37v13.129l-1.178,0.949h-1.14V49.37H74.783z"/>
		<path d="M96.663,54.234v6.65c0,0.532-0.165,0.981-0.494,1.349c-0.405,0.494-0.925,0.741-1.558,0.741h-10.64
			c-0.824,0-1.533-0.266-2.128-0.798c-0.798-0.671-1.197-1.545-1.197-2.622v-3.002l1.178-0.95h1.14v3.952
			c0,0.443,0.152,0.805,0.456,1.083c0.292,0.266,0.627,0.398,1.007,0.398h9.443c0.316,0,0.475-0.158,0.475-0.475v-6.327H96.663z
			 M87.219,53.721c0.342,0,0.633,0.12,0.874,0.361c0.241,0.24,0.361,0.531,0.361,0.874c0,0.342-0.121,0.633-0.361,0.874
			c-0.241,0.24-0.532,0.36-0.874,0.36c-0.329,0-0.614-0.12-0.855-0.36c-0.241-0.241-0.361-0.532-0.361-0.874
			c0-0.343,0.12-0.634,0.361-0.874C86.605,53.841,86.89,53.721,87.219,53.721z M90.127,53.721c0.329,0,0.614,0.12,0.855,0.361
			c0.241,0.24,0.361,0.531,0.361,0.874c0,0.342-0.12,0.633-0.361,0.874c-0.241,0.24-0.526,0.36-0.855,0.36
			c-0.342,0-0.633-0.12-0.874-0.36c-0.241-0.241-0.361-0.532-0.361-0.874c0-0.343,0.12-0.634,0.361-0.874
			C89.493,53.841,89.785,53.721,90.127,53.721z"/>
		<path d="M101.602,49.37v11.19c0,0.127,0.038,0.229,0.114,0.304c0.076,0.114,0.196,0.171,0.361,0.171h0.494v1.938h-1.235
			c-0.52,0-0.975-0.184-1.368-0.551c-0.456-0.418-0.684-0.932-0.684-1.539V49.37H101.602z"/>
		<path d="M106.219,61.035c-0.57-0.76-0.855-1.678-0.855-2.755c0-0.975,0.247-1.817,0.741-2.526
			c0.798-1.165,1.951-1.748,3.458-1.748c1.14,0,2.096,0.354,2.869,1.063c0.899,0.824,1.349,1.895,1.349,3.211
			c0,1.039-0.285,1.957-0.855,2.755h1.311v1.938h-2.85c-0.824,0-1.419-0.082-1.786-0.247h-0.095
			c-0.355,0.165-0.95,0.247-1.786,0.247h-5.282v-1.938H106.219z M108.157,50.054c0.342,0,0.633,0.12,0.874,0.361
			c0.24,0.24,0.361,0.531,0.361,0.874c0,0.329-0.121,0.614-0.361,0.854c-0.241,0.241-0.532,0.361-0.874,0.361
			c-0.33,0-0.615-0.12-0.855-0.361c-0.241-0.24-0.361-0.525-0.361-0.854c0-0.343,0.121-0.634,0.361-0.874
			C107.543,50.174,107.828,50.054,108.157,50.054z M109.563,61.017c0.57-0.063,1.029-0.326,1.377-0.788
			c0.349-0.463,0.522-1.055,0.522-1.777c0-0.76-0.171-1.367-0.513-1.823c-0.342-0.456-0.805-0.685-1.387-0.685
			c-0.57,0-1.029,0.229-1.377,0.685c-0.349,0.456-0.522,1.063-0.522,1.823c0,0.723,0.174,1.314,0.522,1.777
			C108.534,60.691,108.993,60.953,109.563,61.017z M111.045,50.054c0.342,0,0.633,0.12,0.874,0.361
			c0.241,0.24,0.361,0.531,0.361,0.874c0,0.329-0.121,0.614-0.361,0.854c-0.241,0.241-0.532,0.361-0.874,0.361
			c-0.342,0-0.63-0.117-0.864-0.352s-0.352-0.522-0.352-0.864c0-0.343,0.117-0.634,0.352-0.874
			C110.415,50.174,110.703,50.054,111.045,50.054z"/>
		<path d="M117.885,61.035c-0.57-0.76-0.855-1.678-0.855-2.755c0-0.975,0.247-1.817,0.741-2.526
			c0.798-1.165,1.951-1.748,3.458-1.748c1.14,0,2.096,0.354,2.869,1.063c0.899,0.824,1.349,1.895,1.349,3.211
			c0,1.039-0.285,1.957-0.855,2.755h1.311v1.938h-2.85c-0.824,0-1.419-0.082-1.786-0.247h-0.095
			c-0.355,0.165-0.95,0.247-1.786,0.247h-5.282v-1.938H117.885z M121.229,61.017c0.57-0.063,1.029-0.326,1.377-0.788
			c0.349-0.463,0.522-1.055,0.522-1.777c0-0.76-0.171-1.367-0.513-1.823c-0.342-0.456-0.805-0.685-1.387-0.685
			c-0.57,0-1.029,0.229-1.377,0.685c-0.349,0.456-0.522,1.063-0.522,1.823c0,0.723,0.174,1.314,0.522,1.777
			C120.2,60.691,120.659,60.953,121.229,61.017z M121.267,50.054c0.329,0,0.614,0.12,0.855,0.361
			c0.241,0.24,0.361,0.531,0.361,0.874c0,0.329-0.12,0.614-0.361,0.854c-0.241,0.241-0.526,0.361-0.855,0.361
			c-0.342,0-0.633-0.12-0.874-0.361c-0.241-0.24-0.361-0.525-0.361-0.854c0-0.343,0.12-0.634,0.361-0.874
			C120.634,50.174,120.925,50.054,121.267,50.054z"/>
		<path d="M131.489,57.426c1.697-2.293,3.793-3.439,6.289-3.439c1.52,0,2.774,0.476,3.762,1.426c0.899,0.861,1.349,1.95,1.349,3.268
			v1.748c0,0.076-0.006,0.184-0.019,0.323c0,0.126,0,0.222,0,0.284h0.627v1.938h-0.38l-0.627-0.779h-0.057
			c-0.418,0.52-0.957,0.779-1.615,0.779H125.77v-1.938h3.42l-0.019-6.802h2.318V57.426z M140.571,58.794
			c-0.013-0.912-0.361-1.635-1.045-2.166c-0.583-0.431-1.286-0.646-2.109-0.646c-1.267,0-2.438,0.526-3.515,1.577
			c-0.988,0.823-1.793,1.982-2.413,3.477h8.607c0.316,0,0.475-0.158,0.475-0.475V58.794z"/>
		<path d="M149.083,49.37v11.514c0,0.532-0.171,0.988-0.513,1.368c-0.393,0.481-0.906,0.722-1.539,0.722h-3.667v-1.938h2.926
			c0.139,0,0.259-0.05,0.361-0.151c0.088-0.089,0.133-0.196,0.133-0.323V49.37H149.083z"/>
		<path d="M154.023,49.37v13.129l-1.178,0.949h-1.14V49.37H154.023z"/>
	</g>
</g>
</svg>
